{"title":"The Mortal Instruments City of Bones (2013) NEW SOURCE HDCAM Xvi","uid":8921899,"size":1518575616,"categoryP":"video","categoryS":"movies","magnet":"?xt=urn:btih:4f10c48ff342f952710015f342c95bbe29436709&amp;dn=The+Mortal+Instruments+City+of+Bones+%282013%29+NEW+SOURCE+HDCAM+Xvi&amp;tr=udp%3A%2F%2Ftracker.openbittorrent.com%3A80&amp;tr=udp%3A%2F%2Fopen.demonii.com%3A1337&amp;tr=udp%3A%2F%2Ftracker.coppersurfer.tk%3A6969&amp;tr=udp%3A%2F%2Fexodus.desync.com%3A6969","seeders":1,"leechers":0,"uploader":"tykoon123","files":-1,"time":1379273252,"description":" &lt;a href=&quot;http://megaimg.com/images/52004947299052889149.jpg&quot; rel=&quot;nofollow&quot; target=&quot;_NEW&quot;&gt;http://megaimg.com/images/52004947299052889149.jpg&lt;/a&gt;\n\nInfo:\n\nFormat : AVI\nFormat/Info : Audio Video Interleave\nFile size : 1.40 GiB\nDuration : 2h 2mn\nOverall bit rate : 1 625 Kbps\nWriting application : VirtualDubMod 1.5.10.2 (build 2540/release)\nWriting library : VirtualDubMod build 2540/release\n\nVideo\nID : 0\nFormat : MPEG-4 Visual\nFormat profile : Advanced Simple@L5\nFormat settings, BVOP : 2\nFormat settings, QPel : No\nFormat settings, GMC : No warppoints\nFormat settings, Matrix : Default (H.263)\nMuxing mode : Packed bitstream\nCodec ID : XVID\nCodec ID/Hint : XviD\nDuration : 2h 2mn\nBit rate : 1 487 Kbps\nWidth : 692 pixels\nHeight : 304 pixels\nDisplay aspect ratio : 2.25:1\nFrame rate : 23.976 fps\nColor space : YUV\nChroma subsampling : 4:2:0\nBit depth : 8 bits\nScan type : Progressive\nCompression mode : Lossy\nBits/(Pixel*Frame) : 0.295\nStream size : 1.28 GiB (92%)\nWriting library : XviD 64\n\nAudio\nID : 1\nFormat : MPEG Audio\nFormat version : Version 1\nFormat profile : Layer 3\nMode : Joint stereo\nMode extension : MS Stereo\nCodec ID : 55\nCodec ID/Hint : MP3\nDuration : 2h 2mn\nBit rate mode : Constant\nBit rate : 128 Kbps\nChannel(s) : 2 channels\nSampling rate : 48.0 KHz\nCompression mode : Lossy\nStream size : 113 MiB (8%)\nAlignment : Aligned on interleaves\nInterleave, duration : 42 ms (1.00 video frame)\nInterleave, preload duration : 504 ms\n\nNote:\n\nSource Used \n\n\nVideo .............LATiNO / Thanks\n\nAudio ..............KiNGofJeFFs / Thanks :bow:\n\nGreets now going out to !\n\nJUSTiCE,KiSSMYACE and the rest can just KMA :lol:\n\n\nHeres the faults with this vid\n\n\nPerspective was shot to bits it was like a damn banana its still not right but ive pulled the vid as much as i could or would \n\nFrame rate is abit iffy in parts seems to be abit jerky it was variable so i made it constant and its made it better but not perfect\n\n\nDefinetly a more than watchable copy though,way better than whats out \n\nHardest sync i ever did if it drops dont moan i dont care\n\nScreens: &lt;a href=&quot;\nhttp://1337x.org/torrent/628312/The-Mortal-Instruments-City-of-Bones-2013-NEW-SOURCE-HDCAM-XviD-UNiQUE/&quot; rel=&quot;nofollow&quot; target=&quot;_NEW&quot;&gt;\nhttp://1337x.org/torrent/628312/The-Mortal-Instruments-City-of-Bones-2013-NEW-SOURCE-HDCAM-XviD-UNiQUE/&lt;/a&gt;\n","torrent":{"xt":"urn:btih:4f10c48ff342f952710015f342c95bbe29436709","amp;dn":"The+Mortal+Instruments+City+of+Bones+%282013%29+NEW+SOURCE+HDCAM+Xvi","amp;tr":["udp%3A%2F%2Ftracker.openbittorrent.com%3A80","udp%3A%2F%2Fopen.demonii.com%3A1337","udp%3A%2F%2Ftracker.coppersurfer.tk%3A6969","udp%3A%2F%2Fexodus.desync.com%3A6969"],"infoHash":"4f10c48ff342f952710015f342c95bbe29436709","infoHashBuffer":{"type":"Buffer","data":[79,16,196,143,243,66,249,82,113,0,21,243,66,201,91,190,41,67,103,9]},"announce":[],"urlList":[]}}